<svg xmlns="http://www.w3.org/2000/svg" x="0px" y="0px" width="20" height="20" viewBox="0,0,256,256"
style="fill:#000000;">
<g fill="#303030" fill-rule="nonzero" stroke="none" stroke-width="1" stroke-linecap="butt" stroke-linejoin="miter" stroke-miterlimit="10" stroke-dasharray="" stroke-dashoffset="0" font-family="none" font-weight="none" font-size="none" text-anchor="none" style="mix-blend-mode: normal"><g transform="scale(10.66667,10.66667)"><path d="M10.3125,-0.03125c-1.72266,0 -3.14844,1.34766 -3.3125,3.03125h-5v2h4.96875v0.03125h10.0625v-0.03125h4.96875v-2h-5c-0.15625,-1.68359 -1.51562,-3.03125 -3.1875,-3.03125zM10.3125,2.03125h3.5c0.50781,0 0.88281,0.39844 1.03125,0.9375h-5.6875c0.14063,-0.53906 0.53125,-0.9375 1.15625,-0.9375zM4,6v16.5c0,0.80078 0.69922,1.5 1.5,1.5h13.09375c0.80078,0 1.5,-0.69922 1.5,-1.5v-16.5zM7,9h1v13h-1zM10,9h1v13h-1zM13,9h1v13h-1zM16,9h1v13h-1z"></path></g></g>
</svg>